<svg xmlns="http://www.w3.org/2000/svg" viewBox="0 0 640 280" fill="none">
  <rect width="640" height="280" rx="16" fill="#1d1d1d"/>
  <rect x="24" y="25" width="592" height="230" rx="12" fill="#f8fafc"/>
  <rect x="24" y="25" width="269" height="230" rx="12" fill="#eef2f7"/>
  <path d="M293 25v230" stroke="#d5dce5"/>
  <text x="45" y="62" fill="#334155" font-family="Arial,sans-serif" font-size="17" font-weight="600">Method: forms.get</text>
  <rect x="45" y="87" width="185" height="11" rx="5" fill="#cbd5e1"/>
  <rect x="45" y="108" width="213" height="11" rx="5" fill="#dbe2ea"/>
  <rect x="45" y="129" width="156" height="11" rx="5" fill="#dbe2ea"/>
  <text x="313" y="52" fill="#1f2937" font-family="Arial,sans-serif" font-size="16" font-weight="600">APIs Explorer</text>
  <path d="M309 66h286" stroke="#e2e8f0"/>
  <text x="313" y="88" fill="#475569" font-family="Arial,sans-serif" font-size="11">Request parameters</text>
  <text x="313" y="108" fill="#334155" font-family="ui-monospace,monospace" font-size="12">formId</text>
  <rect x="311" y="115" width="285" height="32" rx="5" fill="#fff" stroke="#5b9dff" stroke-width="2"/>
  <text x="323" y="136" fill="#64748b" font-family="ui-monospace,monospace" font-size="12">FORM_ID</text>
  <text x="313" y="169" fill="#475569" font-family="Arial,sans-serif" font-size="11">Credentials</text>
  <rect x="313" y="181" width="14" height="14" rx="2" fill="#5b9dff"/>
  <path d="m316 188 3 3 5-6" stroke="#fff" stroke-width="2" stroke-linecap="round" stroke-linejoin="round"/>
  <text x="334" y="193" fill="#334155" font-family="Arial,sans-serif" font-size="12">Google OAuth 2.0</text>
  <rect x="312" y="211" width="94" height="31" rx="5" fill="#5b9dff"/>
  <text x="335" y="231" fill="#08111f" font-family="Arial,sans-serif" font-size="13" font-weight="700">Execute</text>
</svg>
